HIERARCHY
ROOT Hips
{
	OFFSET 0.00000 0.00000 0.00000
	CHANNELS 6 Xposition Yposition Zposition Zrotation Yrotation Xrotation 
	JOINT LHipJoint
	{
		OFFSET 0 0 0
		CHANNELS 3 Zrotation Yrotation Xrotation
		JOINT LeftUpLeg
		{
			OFFSET 1.58161 -1.81893 0.78828
			CHANNELS 3 Zrotation Yrotation Xrotation
			JOINT LeftLeg
			{
				OFFSET 2.53374 -6.96141 0.00000
				CHANNELS 3 Zrotation Yrotation Xrotation
				JOINT LeftFoot
				{
					OFFSET 2.63509 -7.23986 0.00000
					CHANNELS 3 Zrotation Yrotation Xrotation
					JOINT LeftToeBase
					{
						OFFSET 0.14115 -0.38781 2.05350
						CHANNELS 3 Zrotation Yrotation Xrotation
						End Site
						{
							OFFSET 0.00000 -0.00000 1.05543
						}
					}
				}
			}
		}
	}
	JOINT RHipJoint
	{
		OFFSET 0 0 0
		CHANNELS 3 Zrotation Yrotation Xrotation
		JOINT RightUpLeg
		{
			OFFSET -1.11138 -1.81893 0.78828
			CHANNELS 3 Zrotation Yrotation Xrotation
			JOINT RightLeg
			{
				OFFSET -2.58392 -7.09926 0.00000
				CHANNELS 3 Zrotation Yrotation Xrotation
				JOINT RightFoot
				{
					OFFSET -2.66423 -7.31992 0.00000
					CHANNELS 3 Zrotation Yrotation Xrotation
					JOINT RightToeBase
					{
						OFFSET -0.18831 -0.51739 2.12114
						CHANNELS 3 Zrotation Yrotation Xrotation
						End Site
						{
							OFFSET -0.00000 -0.00000 1.09845
						}
					}
				}
			}
		}
	}
	JOINT LowerBack
	{
		OFFSET 0 0 0
		CHANNELS 3 Zrotation Yrotation Xrotation
		JOINT Spine
		{
			OFFSET -0.01511 1.97958 -0.08829
			CHANNELS 3 Zrotation Yrotation Xrotation
			JOINT Spine1
			{
				OFFSET 0.08344 1.97334 -0.04330
				CHANNELS 3 Zrotation Yrotation Xrotation
				JOINT Neck
				{
					OFFSET 0 0 0
					CHANNELS 3 Zrotation Yrotation Xrotation
					JOINT Neck1
					{
						OFFSET 0.00559 1.76246 0.31246
						CHANNELS 3 Zrotation Yrotation Xrotation
						JOINT Head
						{
							OFFSET -0.07011 1.80354 -0.30524
							CHANNELS 3 Zrotation Yrotation Xrotation
							End Site
							{
								OFFSET -0.02385 1.83547 -0.13906
							}
						}
					}
				}
				JOINT LeftShoulder
				{
					OFFSET 0 0 0
					CHANNELS 3 Zrotation Yrotation Xrotation
					JOINT LeftArm
					{
						OFFSET 3.20667 1.30156 -0.60240
						CHANNELS 3 Zrotation Yrotation Xrotation
						JOINT LeftForeArm
						{
							OFFSET 4.95663 -0.00000 0.00000
							CHANNELS 3 Zrotation Yrotation Xrotation
							JOINT LeftHand
							{
								OFFSET 3.38177 -0.00000 0.00000
								CHANNELS 3 Zrotation Yrotation Xrotation
								JOINT LeftFingerBase
								{
									OFFSET 0 0 0
									CHANNELS 3 Zrotation Yrotation Xrotation
									JOINT LeftHandIndex1
									{
										OFFSET 0.66291 -0.00000 0.00000
										CHANNELS 3 Zrotation Yrotation Xrotation
										End Site
										{
											OFFSET 0.53445 -0.00000 0.00000
										}
									}
								}
								JOINT LThumb
								{
									OFFSET 0 0 0
									CHANNELS 3 Zrotation Yrotation Xrotation
									End Site
									{
										OFFSET 0.54261 -0.00000 0.54261
									}
								}
							}
						}
					}
				}
				JOINT RightShoulder
				{
					OFFSET 0 0 0
					CHANNELS 3 Zrotation Yrotation Xrotation
					JOINT RightArm
					{
						OFFSET -3.06877 1.34672 -0.60964
						CHANNELS 3 Zrotation Yrotation Xrotation
						JOINT RightForeArm
						{
							OFFSET -5.08365 -0.00000 0.00000
							CHANNELS 3 Zrotation Yrotation Xrotation
							JOINT RightHand
							{
								OFFSET -3.35984 -0.00000 0.00000
								CHANNELS 3 Zrotation Yrotation Xrotation
								JOINT RightFingerBase
								{
									OFFSET 0 0 0
									CHANNELS 3 Zrotation Yrotation Xrotation
									JOINT RightHandIndex1
									{
										OFFSET -0.82076 -0.00000 0.00000
										CHANNELS 3 Zrotation Yrotation Xrotation
										End Site
										{
											OFFSET -0.66172 -0.00000 0.00000
										}
									}
								}
								JOINT RThumb
								{
									OFFSET 0 0 0
									CHANNELS 3 Zrotation Yrotation Xrotation
									End Site
									{
										OFFSET -0.67182 -0.00000 0.67182
									}
								}
							}
						}
					}
				}
			}
		}
	}
}
MOTION
Frames: 12
Frame Time: .0083333
-5.8291 17.8741 1.7898 0 0 0 0 0 0 -21 0 0 0 0 0 0 0 0 0 0 0 0 0 0 21 0 0 0 0 0 0 0 0 0 0 0 0 0 0 0 0 0 0 0 0 0 0 -16 0 0 21 0 0 11 0 0 0 -8 0 0 0 0 0 0 0 0 0 0 0 0 0 0 0 0 0 0 0 0 8 0 0 0 0 0 0 0 0 0 0 0 0 0 0 0 0 0
-5.8291 17.8741 1.7898 -96.1138 86.2960 -78.4182 0.0000 0.0000 0.0000 -6.1296 -5.4636 -31.3069 2.6289 10.0686 29.1993 0.3917 -3.5436 -11.1390 1.3894 -7.4577 -21.0788 0.0000 0.0000 0.0000 10.4596 10.0911 -28.3511 -2.3623 -9.5830 27.6367 -0.1986 -6.3911 -13.0944 -0.0813 1.8391 -5.0612 -1.4274 1.5794 4.6358 4.7115 2.1852 3.1218 5.5856 1.0918 0.3830 2.3375 -1.8022 -17.1013 -5.8607 0.9477 41.0205 -2.8099 0.5153 18.3012 0.0000 0.0000 0.0000 -104.5822 -21.1623 81.5658 14.9365 -24.0576 -3.2000 -0.0000 0.0000 -45.5912 37.0971 65.2536 34.4802 -7.1250 0.0000 -0.0000 171.7517 9.9591 6.7699 0.0000 0.0000 0.0000 102.4205 25.2237 32.6570 -10.2954 17.2003 -1.5612 0.0000 -0.0000 -31.1458 -12.8396 -5.1299 1.1675 7.1250 -0.0000 -0.0000 11.4598 -35.0507 2.8475
-5.8290 17.8746 1.7883 -95.9110 86.2871 -78.2542 0.0000 0.0000 0.0000 -6.1387 -5.4566 -31.2715 2.6328 10.0754 29.2212 0.3931 -3.4768 -11.1612 1.4481 -7.6069 -21.5263 0.0000 0.0000 0.0000 10.4702 10.0816 -28.2824 -2.3573 -9.5737 27.6071 -0.1973 -6.3932 -13.0740 -0.0952 1.9899 -5.4776 -1.4198 1.5751 4.6783 4.7162 2.1805 3.1259 5.5854 1.0900 0.3642 2.3463 -1.7923 -17.0801 -5.8789 0.9686 41.0168 -2.8154 0.5229 18.2951 -0.0000 -0.0000 0.0000 -104.6300 -21.1624 81.4036 14.8519 -23.9393 -3.1656 -0.0000 0.0000 -45.2644 36.9977 65.2613 34.3854 -7.1250 0.0000 -0.0000 171.7259 9.9426 6.7944 -0.0000 -0.0000 0.0000 102.4362 25.1627 32.7445 -10.3350 17.2619 -1.5729 0.0000 -0.0000 -31.1975 -13.0208 -5.1580 1.1910 7.1250 -0.0000 -0.0000 11.3162 -35.0877 2.8002
-5.8290 17.8740 1.7860 -95.6326 86.2872 -77.9777 0.0000 0.0000 0.0000 -6.0897 -5.5454 -31.1193 2.6318 10.0737 29.2156 0.4070 -3.5340 -11.3582 1.3971 -7.4776 -21.1381 0.0000 0.0000 0.0000 10.4640 10.0614 -28.2839 -2.3536 -9.5667 27.5846 -0.1975 -6.3754 -13.0589 -0.1005 2.0439 -5.6269 -1.4172 1.5764 4.6660 4.7233 2.1825 3.1207 5.5914 1.0911 0.3653 2.3481 -1.7924 -17.0406 -5.9036 0.9816 41.0148 -2.8240 0.5261 18.2843 -0.0000 0.0000 0.0000 -104.6476 -21.1389 81.2782 14.8035 -23.8717 -3.1460 -0.0000 0.0000 -45.1581 36.7104 65.1623 34.0857 -7.1250 0.0000 -0.0000 171.6999 9.7908 6.8419 -0.0000 0.0000 0.0000 102.4201 25.0852 32.8149 -10.3806 17.3327 -1.5864 0.0000 -0.0000 -31.2835 -13.1255 -5.2519 1.2227 7.1250 -0.0000 -0.0000 11.2456 -35.1873 2.7544
-5.8294 17.8740 1.7841 -96.3624 86.2937 -78.7047 0.0000 0.0000 0.0000 -5.9824 -5.7734 -30.9932 2.6312 10.0726 29.2123 0.4154 -3.6712 -11.4704 1.2245 -7.0184 -19.7700 0.0000 0.0000 0.0000 10.4607 10.0482 -28.2615 -2.3469 -9.5541 27.5445 -0.1905 -6.4506 -13.0220 -0.0955 1.9925 -5.4849 -1.3491 1.5844 4.6580 4.6889 2.1948 3.1128 5.5157 1.0982 0.3638 2.3772 -1.8145 -17.0149 -5.8993 0.9393 41.0261 -2.8352 0.5160 18.2804 0.0000 0.0000 0.0000 -104.5860 -21.1177 81.3208 14.7843 -23.8447 -3.1382 -0.0000 0.0000 -45.2134 36.4002 65.1332 33.7792 -7.1250 0.0000 -0.0000 171.6391 9.6943 6.9096 0.0000 0.0000 0.0000 102.5085 25.0980 32.5423 -10.3555 17.2937 -1.5790 0.0000 -0.0000 -31.0266 -13.2248 -5.2469 1.2311 7.1250 -0.0000 -0.0000 11.1636 -35.1871 2.7338
-5.8293 17.8760 1.7819 -97.2920 86.2793 -79.6310 0.0000 0.0000 0.0000 -5.9282 -5.8936 -31.0065 2.6264 10.0641 29.1847 0.4092 -3.6929 -11.3832 1.1426 -6.7879 -19.0886 0.0000 0.0000 0.0000 10.5018 10.0028 -28.2423 -2.3384 -9.5379 27.4929 -0.3630 -4.8871 -14.2357 -1.5360 -7.8242 22.1813 -1.2341 1.5958 4.6287 4.6532 2.2131 3.1250 5.4126 1.1082 0.3960 2.3967 -1.8351 -17.0017 -5.8717 0.8864 41.0089 -2.8348 0.5016 18.2618 -0.0000 -0.0000 0.0000 -104.5306 -21.1358 81.4098 14.7579 -23.8077 -3.1275 -0.0000 0.0000 -45.1921 35.9367 65.1270 33.3297 -7.1250 0.0000 -0.0000 171.5333 9.5834 7.0181 -0.0000 -0.0000 0.0000 102.5936 25.1700 32.2976 -10.3265 17.2487 -1.5704 0.0000 -0.0000 -30.8771 -13.2705 -5.2130 1.2276 7.1250 -0.0000 -0.0000 11.1208 -35.1551 2.7318
-5.8296 17.8773 1.7795 -97.6565 86.2431 -79.9982 0.0000 0.0000 0.0000 -5.8959 -5.8945 -30.9801 2.6165 10.0467 29.1280 0.4043 -3.7034 -11.3133 1.1450 -6.7949 -19.1091 0.0000 0.0000 0.0000 10.5575 9.9457 -28.2382 -2.3307 -9.5234 27.4466 -0.3594 -4.9275 -14.2160 -1.5090 -7.7583 21.9822 -1.2441 1.5699 4.6276 4.7292 2.1807 3.1357 5.5004 1.0921 0.4079 2.3114 -1.8057 -16.9936 -5.8847 0.9698 40.9939 -2.8083 0.5194 18.2581 -0.0000 -0.0000 0.0000 -104.6530 -21.1718 81.2091 14.6740 -23.6900 -3.0938 -0.0000 0.0000 -44.9619 35.1419 64.9920 32.5344 -7.1250 0.0000 -0.0000 171.3981 9.2879 7.1844 -0.0000 -0.0000 0.0000 102.5462 25.2013 32.2651 -10.2927 17.1961 -1.5604 0.0000 -0.0000 -30.8451 -13.2134 -5.1849 1.2155 7.1250 -0.0000 -0.0000 11.1631 -35.1240 2.7511
-5.8298 17.8796 1.7775 -98.0569 86.1955 -80.4345 0.0000 0.0000 0.0000 -5.9048 -5.8124 -31.0760 2.6089 10.0333 29.0846 0.3911 -3.6519 -11.1260 1.1520 -6.8149 -19.1683 0.0000 0.0000 0.0000 10.6264 9.8877 -28.1899 -2.3256 -9.5138 27.4160 -0.3628 -4.8948 -14.2389 -1.5172 -7.7783 22.0426 -1.3104 1.5398 4.7061 4.8480 2.1436 3.1243 5.6628 1.0745 0.3501 2.2233 -1.7791 -16.9801 -5.9451 1.0778 41.0105 -2.8001 0.5421 18.2743 0.0000 0.0000 0.0000 -104.8457 -21.1659 80.9315 14.5773 -23.5540 -3.0550 -0.0000 0.0000 -44.7039 34.6121 64.8611 31.9969 -7.1250 0.0000 -0.0000 171.3223 9.0566 7.2899 0.0000 0.0000 0.0000 102.4501 25.1570 32.2266 -10.2660 17.1546 -1.5525 0.0000 -0.0000 -30.8115 -13.1463 -5.2321 1.2201 7.1250 -0.0000 -0.0000 11.2255 -35.1683 2.7546
-5.8301 17.8781 1.7742 -99.2996 86.1654 -81.6884 0.0000 0.0000 0.0000 -6.0449 -5.6197 -31.3324 2.6054 10.0271 29.0646 0.3760 -3.4104 -10.9138 1.3125 -7.2567 -20.4780 0.0000 0.0000 0.0000 10.6552 9.8429 -28.1574 -2.3224 -9.5077 27.3966 -0.3759 -4.8428 -14.3821 -1.6092 -7.9997 22.7132 -1.2799 1.5201 4.7558 4.8921 2.1214 3.0999 5.6910 1.0653 0.2990 2.2148 -1.7767 -16.9630 -5.9870 1.1083 41.0208 -2.8123 0.5489 18.2788 0.0000 0.0000 0.0000 -104.8597 -21.1460 80.9952 14.5643 -23.5356 -3.0498 -0.0000 0.0000 -44.7714 34.6820 64.8725 32.0665 -7.1250 0.0000 -0.0000 171.3344 9.0819 7.2750 0.0000 0.0000 0.0000 102.4068 25.1083 32.2120 -10.2665 17.1553 -1.5526 0.0000 -0.0000 -30.9151 -13.0769 -5.4056 1.2536 7.1250 -0.0000 -0.0000 11.3099 -35.3394 2.7280
-5.8303 17.8750 1.7716 -99.6782 86.1762 -82.0539 0.0000 0.0000 0.0000 -6.1195 -5.5633 -31.2894 2.5991 10.0159 29.0282 0.3810 -3.3176 -10.9924 1.4383 -7.5824 -21.4527 0.0000 0.0000 0.0000 10.6175 9.8688 -28.1511 -2.3199 -9.5028 27.3813 -0.3813 -4.8206 -14.4396 -1.6824 -8.1706 23.2335 -1.2782 1.5057 4.7474 4.9041 2.1026 3.0963 5.7039 1.0560 0.3017 2.1822 -1.7582 -16.9922 -5.9895 1.1521 41.0330 -2.8001 0.5610 18.2979 -0.0000 -0.0000 0.0000 -104.8062 -21.1816 81.1474 14.5712 -23.5453 -3.0526 -0.0000 0.0000 -44.8900 34.4982 64.8915 31.8938 -7.1250 0.0000 -0.0000 171.2833 9.0585 7.3231 -0.0000 -0.0000 0.0000 102.3973 25.1129 32.3114 -10.2565 17.1398 -1.5497 0.0000 -0.0000 -31.0153 -12.9612 -5.4912 1.2617 7.1250 -0.0000 -0.0000 11.4185 -35.4196 2.7324
-5.8297 17.8777 1.7698 -99.0323 86.2235 -81.3960 0.0000 0.0000 0.0000 -6.0216 -5.7899 -31.0089 2.5930 10.0051 28.9932 0.3967 -3.5273 -11.2109 1.3141 -7.2609 -20.4906 0.0000 0.0000 0.0000 10.5526 9.8953 -28.1635 -2.3175 -9.4982 27.3667 -0.3721 -4.8773 -14.3554 -1.6247 -8.0362 22.8242 -1.3334 1.5196 4.7198 4.9091 2.1183 3.0989 5.7408 1.0627 0.3162 2.1399 -1.7575 -17.0023 -5.9901 1.1692 41.0298 -2.7894 0.5609 18.3004 -0.0000 -0.0000 0.0000 -104.8095 -21.2036 81.2507 14.5670 -23.5395 -3.0509 -0.0000 0.0000 -44.9240 34.1953 64.8115 31.5861 -7.1250 0.0000 -0.0000 171.2406 8.9224 7.3840 -0.0000 -0.0000 0.0000 102.3798 25.1351 32.2864 -10.2292 17.0972 -1.5416 0.0000 -0.0000 -30.9647 -12.9065 -5.4845 1.2547 7.1250 -0.0000 -0.0000 11.4623 -35.4102 2.7459
-5.8291 17.8809 1.7680 -99.0130 86.2408 -81.3602 0.0000 0.0000 0.0000 -5.9913 -5.8766 -31.0649 2.5935 10.0060 28.9961 0.3916 -3.6091 -11.1348 1.2389 -7.0579 -19.8871 0.0000 0.0000 0.0000 10.5336 9.8814 -28.1743 -2.3132 -9.4901 27.3408 -0.3720 -4.9191 -14.3874 -1.6044 -7.9883 22.6786 -1.3447 1.5193 4.6888 4.9182 2.1174 3.0962 5.7578 1.0618 0.3300 2.0898 -1.7518 -16.9714 -5.9625 1.1831 41.0052 -2.7627 0.5621 18.2782 0.0000 0.0000 0.0000 -104.8009 -21.2014 81.2611 14.5671 -23.5395 -3.0509 -0.0000 0.0000 -44.9171 34.0198 64.6975 31.3938 -7.1250 0.0000 -0.0000 171.2404 8.7839 7.4086 0.0000 0.0000 0.0000 102.3739 25.1379 32.1822 -10.2159 17.0765 -1.5377 0.0000 -0.0000 -30.8123 -12.8809 -5.5391 1.2645 7.1250 -0.0000 -0.0000 11.4922 -35.4637 2.7380
